<svg width="32" height="32" viewBox="0 0 32 32" fill="none" xmlns="http://www.w3.org/2000/svg">
<g clip-path="url(#clip0_40000126_5270)">
<path d="M0 16C0 7.16344 7.16344 0 16 0C24.8366 0 32 7.16344 32 16C32 24.8366 24.8366 32 16 32C7.16344 32 0 24.8366 0 16Z" fill="#454549"/>
<path d="M19.3364 11.146C16.3697 10.6496 13.559 10.8616 10.7788 11.9604C10.7136 11.9836 10.6103 12.0193 10.5103 12.0571C10.4329 12.0864 10.3163 12.1351 10.2134 12.186L10.2124 12.1851C10.0046 12.2763 9.80262 12.3662 9.58644 12.4722L9.09816 12.7173C8.92831 12.8068 8.75623 12.9032 8.59621 13.0044H8.59718L8.31691 13.1675L8.30812 13.1724L8.30031 13.1782C8.09533 13.3058 7.89242 13.4366 7.69289 13.5708L7.49171 13.7056C7.00665 14.0442 6.4298 14.5371 5.90089 15.0298C5.30266 15.5871 4.72112 16.1877 4.35402 16.6362H4.35304C4.2185 16.7895 4.12004 16.9167 4.00832 17.0669C3.81941 17.3009 3.67989 17.5026 3.52882 17.7241L3.33449 18.0083L3.14601 18.314L3.14406 18.3169L2.82863 18.8687L2.82277 18.8813L2.60988 19.3149C2.54332 19.4556 2.47884 19.5969 2.41652 19.7388L2.19972 20.2427C1.7104 21.4579 1.3492 22.9403 1.23 24.4214C1.09477 26.1022 1.26333 27.8776 2.00246 29.2739V29.2749C2.86394 30.9015 4.36313 31.7628 6.09328 32.3052C8.90031 33.1855 12.094 33.3917 14.9448 33.5522C18.3466 33.7437 22.2809 33.9849 25.7525 33.2583L25.7642 33.2563L25.7759 33.2534C26.0695 33.182 26.3324 33.1108 26.6421 32.9878C28.7805 32.3943 29.9612 30.7552 30.5591 29.0034C31.1573 27.2506 31.2106 25.2995 31.065 23.8735C30.9538 22.7645 30.7048 21.6694 30.3218 20.6069L30.1704 20.2095C30.0129 19.8151 29.8381 19.4286 29.6743 19.0649C29.6354 18.9786 29.5719 18.8685 29.5171 18.7769C29.6431 18.7419 29.7844 18.6904 29.9204 18.6069C30.0231 18.544 30.1988 18.439 30.3472 18.2886C30.5212 18.112 30.6292 17.9082 30.6987 17.6763L30.7466 17.4839C30.8366 17.0372 30.7713 16.597 30.5337 16.2075C30.278 15.7884 29.87 15.5046 29.4409 15.313L29.44 15.312C29.4452 15.303 29.4503 15.2939 29.4556 15.2847C29.5011 15.2061 29.5653 15.0951 29.6021 15.0142C30.1023 13.913 29.5284 12.6271 28.2583 12.2671L28.1079 12.229C27.3655 12.0694 26.766 12.3192 26.314 12.6304C26.0847 12.7882 25.8805 12.9706 25.7144 13.1206C25.6248 13.2015 25.5477 13.2716 25.4771 13.3335L25.2778 13.4976L25.2749 13.4995C25.2726 13.4983 25.2697 13.4979 25.2671 13.4966C25.2026 13.4622 25.1231 13.4063 24.9986 13.3101C24.8911 13.227 24.7327 13.1 24.5718 12.9956C22.9222 11.9261 21.2522 11.4666 19.3364 11.146Z" fill="#344966" stroke="#7CAEF4" stroke-width="1.5"/>
<path d="M18.4765 21.4617C18.2559 21.4697 18.0593 21.6056 17.9247 21.9051C17.7835 22.2194 17.8064 22.5085 17.8632 22.6482L17.8895 22.699C17.9049 22.7217 17.9175 22.7316 17.9374 22.7429C17.9606 22.7561 18.0029 22.7718 18.079 22.7918C18.3516 22.7916 18.6388 22.574 18.7372 22.1287C18.7845 21.9145 18.7578 21.7385 18.706 21.6336C18.6708 21.5625 18.6129 21.4977 18.4765 21.4617Z" fill="#7CAEF4" stroke="#7CAEF4" stroke-width="1.5"/>
<path d="M10.3231 19.9117C10.0195 19.9292 9.74016 20.1731 9.64633 20.5962C9.59956 20.8071 9.62597 20.9796 9.67562 21.0826C9.709 21.1515 9.76085 21.2089 9.8768 21.2427C10.1865 21.2398 10.4558 21.0115 10.5438 20.5855C10.5876 20.3732 10.5606 20.1906 10.5057 20.0767C10.469 20.0005 10.4168 19.9451 10.3231 19.9117Z" fill="#7CAEF4" stroke="#7CAEF4" stroke-width="1.5"/>
<path d="M30.6362 30.0656C30.3357 30.0952 30.0997 30.2432 29.9623 30.3449L29.9643 30.3469C29.7948 30.4692 29.6091 30.6678 29.4926 30.799C29.3553 30.9538 29.2215 31.1185 29.142 31.2238C29.0251 31.3654 28.803 31.6623 28.7123 31.9983C28.6626 32.1828 28.6154 32.5179 28.8159 32.843C29.0259 33.1837 29.3746 33.3017 29.644 33.3361C30.4322 33.4366 31.1352 33.0592 31.5366 32.5363C31.9388 32.0123 32.134 31.1809 31.5844 30.4817L31.4907 30.3762C31.2609 30.1459 30.9567 30.0342 30.6362 30.0656Z" fill="#344966" stroke="#7CAEF4" stroke-width="1.5"/>
<path d="M0.393707 23.7384C0.190831 23.6673 0.000994534 23.6734 -0.142426 23.6984C-0.273675 23.7213 -0.394241 23.7656 -0.493988 23.8117L-0.720551 23.9347L-0.762543 23.9601L-0.800629 23.9904C-1.30691 24.3983 -1.58917 25.0343 -1.50864 25.6613C-1.4206 26.346 -0.915039 26.8912 -0.138519 27.0343C0.117369 27.0814 0.380175 27.0283 0.598785 26.8713C0.792789 26.7319 0.900144 26.5486 0.959137 26.4152C1.07378 26.1558 1.10741 25.8569 1.12027 25.6379C1.14754 25.1734 1.09561 24.6811 1.07535 24.5343L1.05679 24.4006L0.993317 24.2814C0.963748 24.2264 0.932608 24.1771 0.903473 24.134L0.896637 24.1252C0.775645 23.9519 0.605947 23.8129 0.393707 23.7384Z" fill="#344966" stroke="#7CAEF4" stroke-width="1.5"/>
</g>
<defs>
<clipPath id="clip0_40000126_5270">
<path d="M0 16C0 7.16344 7.16344 0 16 0C24.8366 0 32 7.16344 32 16C32 24.8366 24.8366 32 16 32C7.16344 32 0 24.8366 0 16Z" fill="white"/>
</clipPath>
</defs>
</svg>
