<svg width="24" height="24" viewBox="0 0 24 24" fill="none" xmlns="http://www.w3.org/2000/svg">
<path d="M10 18C10 19.1046 10.8954 20 12 20C13.1046 20 14 19.1046 14 18H10ZM6.00001 13.7227C5.99995 14.1661 5.82344 14.5906 5.51075 14.9033L5.1211 15.293C5.05793 15.3561 5.02622 15.3883 5.00391 15.4121C5.00303 15.4131 5.00176 15.4142 5.00098 15.415V15.418C4.99995 15.4508 5.00001 15.4959 5.00001 15.5859C5.00001 15.7899 5.00031 15.9014 5.00489 15.9824C5.0051 15.9862 5.00565 15.9899 5.00587 15.9932C5.00919 15.9934 5.01283 15.9949 5.01661 15.9951C5.09668 15.9997 5.207 16 5.40919 16H18.5908C18.7932 16 18.9041 15.9997 18.9844 15.9951C18.9875 15.9949 18.9904 15.9943 18.9932 15.9941C18.9934 15.9905 18.9949 15.9866 18.9951 15.9824C18.9997 15.9014 19 15.7898 19 15.5859C19 15.4965 18.9991 15.4514 18.9981 15.4189C18.998 15.4173 18.9981 15.4155 18.9981 15.4141L18.9971 15.4131C18.9744 15.389 18.9425 15.3565 18.8789 15.293L18.4893 14.9033C18.1761 14.5902 18.0001 14.1655 18 13.7227V10C18 6.68628 15.3137 3.99999 12 4C8.6863 4.00001 6.00001 6.6863 6.00001 10V13.7227ZM20 13.5859L20.293 13.8789C20.3886 13.9746 20.5189 14.1003 20.625 14.248C20.761 14.4374 20.8615 14.6471 20.9238 14.8672L20.9727 15.0908L20.9893 15.2236C21.0009 15.356 21 15.4822 21 15.5859C21 15.8908 21.0127 16.2894 20.8945 16.6396C20.6953 17.2299 20.2326 17.6955 19.6397 17.8955C19.3776 17.9839 19.0885 17.9982 18.833 18H16C16 20.2091 14.2091 22 12 22C9.79087 22 8.00001 20.2091 8.00001 18H5.167C4.91174 17.9982 4.62325 17.9838 4.36133 17.8955C3.76998 17.696 3.30423 17.2316 3.1045 16.6396C2.98637 16.2894 3.00001 15.8908 3.00001 15.5859C3.00001 15.4499 2.99696 15.2703 3.02637 15.0908C3.07615 14.7875 3.19498 14.4988 3.37501 14.248C3.4809 14.1006 3.60968 13.9763 3.70704 13.8789L4.00001 13.5859V10C4.00001 5.58173 7.58174 2.00001 12 2C16.4183 1.99999 20 5.58172 20 10V13.5859Z" fill="#FDFBF2"/>
</svg>
