<svg width="24" height="24" viewBox="0 0 24 24" fill="none" xmlns="http://www.w3.org/2000/svg">
<path d="M3 16.7998V7.2002C3 6.65663 2.99893 6.18845 3.03028 5.80469C3.06258 5.40941 3.13437 5.01605 3.32715 4.6377C3.61475 4.07333 4.07334 3.61475 4.6377 3.32715C5.01605 3.13437 5.40942 3.06258 5.80469 3.03027C6.1405 3.00285 6.54102 3.00126 7 3.00098V2C7 1.44772 7.44772 1 8 1C8.55229 1 9 1.44772 9 2V3H15V2C15 1.44772 15.4477 1 16 1C16.5523 1 17 1.44772 17 2V3.00098C17.4591 3.00125 17.8596 3.00283 18.1953 3.03027C18.5905 3.06261 18.9832 3.13448 19.3613 3.32715C19.9246 3.61418 20.3847 4.07225 20.6729 4.6377C20.8655 5.01581 20.9375 5.40888 20.9697 5.80371C21.0011 6.187 21 6.6548 21 7.19727V16.8037C21 17.3461 21.0011 17.8132 20.9697 18.1963C20.9374 18.5911 20.8655 18.9843 20.6729 19.3623C20.385 19.927 19.9251 20.3856 19.3613 20.6729C18.9833 20.8655 18.5902 20.9374 18.1953 20.9697C17.8123 21.001 17.345 21 16.8027 21H7.19727C6.6548 21 6.187 21.001 5.80372 20.9697C5.40889 20.9374 5.01581 20.8655 4.6377 20.6729C4.0729 20.385 3.61446 19.926 3.32715 19.3623C3.13441 18.984 3.06259 18.5906 3.03028 18.1953C2.99893 17.8117 3 17.3433 3 16.7998ZM7.2002 5C6.62366 5 6.25124 5.00126 5.96778 5.02441C5.69598 5.04662 5.59528 5.08421 5.5459 5.10938C5.35779 5.20524 5.20524 5.35779 5.10938 5.5459C5.08422 5.59528 5.04662 5.69597 5.02442 5.96777C5.00406 6.21699 5.00142 6.53498 5.00098 7H18.999C18.9986 6.53429 18.9969 6.21608 18.9766 5.9668C18.9544 5.69594 18.9167 5.5952 18.8916 5.5459C18.7963 5.35882 18.6424 5.2058 18.4531 5.10938C18.4036 5.08413 18.3032 5.04561 18.0322 5.02344C17.7491 5.00029 17.3764 5 16.7998 5H7.2002ZM5 16.7998C5 17.3764 5.00127 17.749 5.02442 18.0322C5.04661 18.3037 5.08417 18.4046 5.10938 18.4541C5.20555 18.6427 5.35841 18.7961 5.5459 18.8916C5.59521 18.9167 5.69595 18.9544 5.9668 18.9766C6.24974 18.9997 6.62182 19 7.19727 19H16.8027C17.3779 19 17.7496 18.9996 18.0322 18.9766C18.3025 18.9545 18.4037 18.9167 18.4531 18.8916C18.6418 18.7955 18.796 18.6417 18.8916 18.4541C18.9167 18.4048 18.9544 18.3042 18.9766 18.0332C18.9997 17.7505 19 17.3791 19 16.8037V9H5V16.7998Z" fill="#454549"/>
</svg>
