<svg width="30" height="30" viewBox="0 0 30 30" fill="none" xmlns="http://www.w3.org/2000/svg">
<mask id="mask0_40000855_8845" style="mask-type:luminance" maskUnits="userSpaceOnUse" x="0" y="0" width="30" height="30">
<path d="M30 0H0V30H30V0Z" fill="white"/>
</mask>
<g mask="url(#mask0_40000855_8845)">
<path d="M24.0002 15.255C24.0002 14.459 23.9289 13.6937 23.7962 12.959H13.2246V17.3009H19.2655C19.0053 18.704 18.2145 19.8928 17.0257 20.6887V23.5051H20.6533C22.7758 21.551 24.0002 18.6733 24.0002 15.255Z" fill="#4285F4"/>
<path d="M13.2241 26.2243C16.2548 26.2243 18.7956 25.2191 20.6527 23.5049L17.0251 20.6885C16.0201 21.362 14.7343 21.7599 13.2241 21.7599C10.3006 21.7599 7.8261 19.7854 6.94339 17.1323H3.19336V20.0405C5.04037 23.7089 8.83631 26.2243 13.2241 26.2243Z" fill="#34A853"/>
<path d="M6.94388 17.1325C6.71939 16.459 6.59188 15.7397 6.59188 14.9998C6.59188 14.26 6.71939 13.5406 6.94388 12.8672V9.95898H3.19385C2.43372 11.4743 2 13.1886 2 14.9998C2 16.8111 2.43372 18.5254 3.19385 20.0407L6.94388 17.1325Z" fill="#FBBC04"/>
<path d="M13.2241 8.23976C14.872 8.23976 16.3516 8.80604 17.515 9.91829L20.7344 6.69884C18.7905 4.88764 16.2496 3.77539 13.2241 3.77539C8.83631 3.77539 5.04037 6.29072 3.19336 9.95915L6.94339 12.8673C7.8261 10.2143 10.3006 8.23976 13.2241 8.23976Z" fill="#E94235"/>
</g>
</svg>
