<svg width="25" height="26" viewBox="0 0 25 26" fill="none" xmlns="http://www.w3.org/2000/svg">
<path d="M10 19.5C10 20.6046 10.8954 21.5 12 21.5C13.1046 21.5 14 20.6046 14 19.5H10ZM6.00001 15.2227C5.99995 15.6661 5.82344 16.0906 5.51075 16.4033L5.1211 16.793C5.05793 16.8561 5.02622 16.8883 5.00391 16.9121C5.00303 16.9131 5.00176 16.9142 5.00098 16.915V16.918C4.99995 16.9508 5.00001 16.9959 5.00001 17.0859C5.00001 17.2899 5.00031 17.4014 5.00489 17.4824C5.0051 17.4862 5.00565 17.4899 5.00587 17.4932C5.00919 17.4934 5.01283 17.4949 5.01661 17.4951C5.09668 17.4997 5.207 17.5 5.40919 17.5H18.5908C18.7932 17.5 18.9041 17.4997 18.9844 17.4951C18.9875 17.4949 18.9904 17.4943 18.9932 17.4941C18.9934 17.4905 18.9949 17.4866 18.9951 17.4824C18.9997 17.4014 19 17.2898 19 17.0859C19 16.9965 18.9991 16.9514 18.9981 16.9189C18.998 16.9173 18.9981 16.9155 18.9981 16.9141L18.9971 16.9131C18.9744 16.889 18.9425 16.8565 18.8789 16.793L18.4893 16.4033C18.1761 16.0902 18.0001 15.6655 18 15.2227V11.5C18 8.18628 15.3137 5.49999 12 5.5C8.6863 5.50001 6.00001 8.1863 6.00001 11.5V15.2227ZM20 15.0859L20.293 15.3789C20.3886 15.4746 20.5189 15.6003 20.625 15.748C20.761 15.9374 20.8615 16.1471 20.9238 16.3672L20.9727 16.5908L20.9893 16.7236C21.0009 16.856 21 16.9822 21 17.0859C21 17.3908 21.0127 17.7894 20.8945 18.1396C20.6953 18.7299 20.2326 19.1955 19.6397 19.3955C19.3776 19.4839 19.0885 19.4982 18.833 19.5H16C16 21.7091 14.2091 23.5 12 23.5C9.79087 23.5 8.00001 21.7091 8.00001 19.5H5.167C4.91174 19.4982 4.62325 19.4838 4.36133 19.3955C3.76998 19.196 3.30423 18.7316 3.1045 18.1396C2.98637 17.7894 3.00001 17.3908 3.00001 17.0859C3.00001 16.9499 2.99696 16.7703 3.02637 16.5908C3.07615 16.2875 3.19498 15.9988 3.37501 15.748C3.4809 15.6006 3.60968 15.4763 3.70704 15.3789L4.00001 15.0859V11.5C4.00001 7.08173 7.58174 3.50001 12 3.5C16.4183 3.49999 20 7.08172 20 11.5V15.0859Z" fill="#FDFBF2"/>
<path d="M19 0.75C21.6234 0.75 23.75 2.87665 23.75 5.5C23.75 8.12335 21.6234 10.25 19 10.25C16.3766 10.25 14.25 8.12335 14.25 5.5C14.25 2.87665 16.3766 0.75 19 0.75Z" fill="#EF4444"/>
<path d="M19 0.75C21.6234 0.75 23.75 2.87665 23.75 5.5C23.75 8.12335 21.6234 10.25 19 10.25C16.3766 10.25 14.25 8.12335 14.25 5.5C14.25 2.87665 16.3766 0.75 19 0.75Z" stroke="#16171B" stroke-width="1.5"/>
</svg>
