<svg width="32" height="32" viewBox="0 0 32 32" fill="none" xmlns="http://www.w3.org/2000/svg">
<path d="M25.3333 27.9993C25.3333 26.784 24.5415 25.482 22.8359 24.416C21.1491 23.3617 18.7356 22.666 16 22.666C13.2644 22.666 10.8509 23.3617 9.16406 24.416C7.45849 25.482 6.66667 26.784 6.66667 27.9993C6.66667 28.7357 6.06971 29.3327 5.33333 29.3327C4.59695 29.3327 4 28.7357 4 27.9993C4 25.5328 5.59638 23.5011 7.7513 22.1543C9.92497 20.7959 12.8448 19.9993 16 19.9993C19.1552 19.9993 22.075 20.7959 24.2487 22.1543C26.4036 23.5011 28 25.5328 28 27.9993C28 28.7357 27.403 29.3327 26.6667 29.3327C25.9303 29.3327 25.3333 28.7357 25.3333 27.9993ZM21.3333 10.666C21.3333 7.7205 18.9455 5.33268 16 5.33268C13.0545 5.33268 10.6667 7.7205 10.6667 10.666C10.6667 13.6115 13.0545 15.9993 16 15.9993C18.9455 15.9993 21.3333 13.6115 21.3333 10.666ZM24 10.666C24 15.0843 20.4183 18.666 16 18.666C11.5817 18.666 8 15.0843 8 10.666C8 6.24774 11.5817 2.66602 16 2.66602C20.4183 2.66602 24 6.24774 24 10.666Z" fill="#454549"/>
</svg>
